<?xml version="1.0" encoding="utf-8"?>
<!-- Generator: Adobe Illustrator 19.2.1, SVG Export Plug-In . SVG Version: 6.00 Build 0)  -->
<svg version="1.1" id="图层_1" xmlns="http://www.w3.org/2000/svg" xmlns:xlink="http://www.w3.org/1999/xlink" x="0px" y="0px"
	 viewBox="0 0 39.3 39.3" style="enable-background:new 0 0 39.3 39.3;" xml:space="preserve">
<style type="text/css">
	.st0{fill:none;}
	.st1{fill:#FFFFFF;}
</style>
<rect x="-939.1" y="-446.9" class="st0" width="1920" height="1080"/>
<g>
	<g>
		<defs>
			<path id="SVGID_1_" d="M19.8,39.3C9,39.3,0.2,30.5,0.2,19.6C0.2,8.8,9,0,19.8,0s19.6,8.8,19.6,19.6
				C39.5,30.5,30.7,39.3,19.8,39.3z"/>
		</defs>
		<use xlink:href="#SVGID_1_"  style="overflow:visible;fill:#FF9C65;"/>
		<clipPath id="SVGID_2_">
			<use xlink:href="#SVGID_1_"  style="overflow:visible;"/>
		</clipPath>
	</g>
</g>
<g>
	<g>
		<path class="st1" d="M34.3,19.5c0-3.4-2.7-6.1-6.1-6.1c-0.1,0-0.3,0-0.4,0c-1.4-2.5-4.1-4.3-7.2-4.3c-4.4,0-8,3.4-8.2,7.8
			c-0.6-0.3-1.4-0.5-2.1-0.5c-2.6,0-4.6,2.1-4.6,4.6c0,0.2,0,0.4,0,0.6c0,0.2,0,0.4,0,0.6c0,2.6,2.1,4.6,4.6,4.6
			c0.2,0,18.4,0,18.4,0v0c3.2-0.2,5.8-2.9,5.8-6.1c0-0.2,0-0.4,0-0.6C34.3,19.9,34.3,19.7,34.3,19.5z M20.6,9.7c2.8,0,5.4,1.5,6.8,4
			c0.1,0.2,0.3,0.3,0.4,0.3c0,0,0,0,0,0c0.1,0,0.3,0,0.4,0c2.5,0,4.6,1.6,5.3,3.9c-1-1.9-3-3.1-5.3-3.1c-0.1,0-0.3,0-0.4,0
			c-1.4-2.5-4.1-4.3-7.2-4.3c-3.2,0-5.9,1.8-7.3,4.4C14.3,11.8,17.2,9.7,20.6,9.7z M10.2,16.9c0.7,0,1.3,0.2,1.9,0.5
			c0.1,0,0.2,0.1,0.2,0.1c0,0,0.1,0,0.1,0c0,0.3-0.1,0.5-0.1,0.8c-0.6-0.3-1.4-0.5-2.1-0.5c-1.7,0-3.1,0.9-4,2.2
			C6.7,18.2,8.3,16.9,10.2,16.9z M28.5,26.4C28.5,26.4,28.5,26.4,28.5,26.4c-0.1,0-18.2,0-18.3,0c-2.3,0-4.1-1.9-4.1-4.1
			s1.8-4.1,4.1-4.1c0.7,0,1.3,0.2,1.9,0.5c0.1,0,0.2,0.1,0.2,0.1c0.1,0,0.2,0,0.2-0.1c0.1-0.1,0.2-0.2,0.3-0.4
			c0.2-4.1,3.6-7.3,7.7-7.3c2.8,0,5.4,1.5,6.8,4c0.1,0.2,0.3,0.3,0.4,0.3c0,0,0,0,0,0c0.1,0,0.3,0,0.4,0c3.1,0,5.6,2.5,5.6,5.6
			C33.8,23.8,31.5,26.2,28.5,26.4z"/>
		<path class="st1" d="M15.6,20.9h2.2v3.5h4.5v-3.5h2.3l-4.5-4.5L15.6,20.9z M22.3,20.4c-0.3,0-0.5,0.2-0.5,0.5v3h-3.5v-3
			c0-0.3-0.2-0.5-0.5-0.5h-1l3.3-3.3l3.3,3.3H22.3z"/>
	</g>
</g>
</svg>
