<?xml version="1.0" encoding="utf-8"?>
<!-- Generator: Adobe Illustrator 19.2.1, SVG Export Plug-In . SVG Version: 6.00 Build 0)  -->
<svg version="1.1" id="图层_1" xmlns="http://www.w3.org/2000/svg" xmlns:xlink="http://www.w3.org/1999/xlink" x="0px" y="0px"
	 viewBox="0 0 31.5 31.5" style="enable-background:new 0 0 31.5 31.5;" xml:space="preserve">
<style type="text/css">
	.st0{fill:none;}
	.st1{fill:#AB6EAA;}
	.st2{fill:#FFFFFF;}
</style>
<rect x="-941.9" y="-452.2" class="st0" width="1920" height="1080"/>
<circle class="st1" cx="15.7" cy="15.7" r="15.7"/>
<g>
	<g>
		<path class="st2" d="M22.6,14.7h-3.2c0.4-0.3,0.7-0.8,0.7-1.3V7.9c0-0.9-0.7-1.6-1.6-1.6H13c-0.9,0-1.6,0.7-1.6,1.6v5.4
			c0,0.6,0.3,1,0.7,1.3H8.9c-0.9,0-1.6,0.7-1.6,1.6v5.4c0,0.9,0.7,1.6,1.6,1.6h5.4c0.7,0,1.2-0.4,1.5-1c0.3,0.6,0.8,1,1.5,1h5.4
			c0.9,0,1.6-0.7,1.6-1.6v-5.4C24.3,15.4,23.5,14.7,22.6,14.7z M11.7,13.3V7.9c0-0.7,0.6-1.3,1.3-1.3h5.4c0.7,0,1.3,0.6,1.3,1.3v5.4
			c0,0.7-0.6,1.3-1.3,1.3h-1.2h-3H13C12.3,14.7,11.7,14.1,11.7,13.3z M15.6,21.7c0,0.7-0.6,1.3-1.3,1.3H8.9c-0.7,0-1.3-0.6-1.3-1.3
			v-5.4c0-0.7,0.6-1.3,1.3-1.3H13h1.2c0.7,0,1.3,0.6,1.3,1.3V21.7z M15.2,15h1.1c-0.2,0.2-0.4,0.4-0.6,0.7
			C15.6,15.4,15.4,15.1,15.2,15z M24,21.7c0,0.7-0.6,1.3-1.3,1.3h-5.4c-0.7,0-1.3-0.6-1.3-1.3v-5.4c0-0.7,0.6-1.3,1.3-1.3h1.2h4.2
			c0.7,0,1.3,0.6,1.3,1.3V21.7z"/>
		<path class="st2" d="M14.5,12.7c0.2,0,0.6-0.1,0.7-0.6l0-0.1h1l0,0.1c0.1,0.6,0.5,0.6,0.7,0.6c0.2,0,0.4-0.1,0.5-0.2
			c0.1-0.1,0.2-0.3,0.2-0.5c0-0.2,0-0.3-0.1-0.5l-0.9-2.6c-0.2-0.7-0.6-0.8-0.9-0.8c-0.4,0-0.7,0.3-0.9,0.9l-0.9,2.5
			c-0.1,0.2-0.1,0.4-0.1,0.5C13.8,12.5,14.1,12.7,14.5,12.7z M14.2,11.6l0.9-2.5c0.2-0.4,0.4-0.7,0.7-0.7c0.3,0,0.5,0.2,0.7,0.6
			l0.9,2.6c0,0.1,0.1,0.3,0.1,0.4c0,0.1,0,0.2-0.1,0.3c-0.1,0.1-0.2,0.1-0.3,0.1c-0.2,0-0.4-0.1-0.4-0.4l-0.1-0.3H15L14.9,12
			c-0.1,0.3-0.2,0.4-0.5,0.4c-0.3,0-0.4-0.1-0.4-0.4C14.1,11.9,14.1,11.8,14.2,11.6z"/>
		<path class="st2" d="M15.7,9.4L15.7,9.4l-0.5,1.6l1,0L15.7,9.4z M15.7,10.4l0.1,0.3l-0.2,0L15.7,10.4z"/>
		<path class="st2" d="M11.8,18.4c0-0.2-0.2-0.4-0.4-0.4h-0.4v0.7h0.4C11.7,18.7,11.8,18.6,11.8,18.4z M11.2,18.3h0.1
			c0.1,0,0.1,0.1,0.1,0.1c0,0,0,0,0,0c0,0-0.1,0-0.1,0h-0.1V18.3z"/>
		<path class="st2" d="M12.8,18.9c0.1-0.2,0.2-0.4,0.2-0.7c0-0.4-0.1-0.7-0.4-0.9c-0.3-0.2-0.6-0.4-1-0.4h-1.1
			c-0.5,0-0.7,0.3-0.7,0.7v3c0,0.2,0.1,0.4,0.2,0.5c0.1,0.1,0.3,0.2,0.5,0.2h1.2c0.5,0,0.9-0.1,1.2-0.3c0.3-0.3,0.5-0.6,0.5-1.1
			c0-0.3-0.1-0.6-0.3-0.8C13,19,12.9,18.9,12.8,18.9z M12.6,20.8c-0.2,0.2-0.6,0.3-1,0.3h-1.2c-0.1,0-0.2,0-0.3-0.1
			c-0.1-0.1-0.1-0.2-0.1-0.3v-3c0-0.3,0.1-0.4,0.4-0.4h1.1c0.3,0,0.6,0.1,0.8,0.3c0.2,0.2,0.3,0.4,0.3,0.7c0,0.3-0.2,0.6-0.5,0.8
			c0.3,0,0.5,0.2,0.6,0.3c0.1,0.2,0.2,0.4,0.2,0.6C13,20.3,12.9,20.6,12.6,20.8z"/>
		<path class="st2" d="M11.5,19.5h-0.6v0.9h0.6c0.4,0,0.6-0.2,0.6-0.4C12.1,19.6,11.9,19.5,11.5,19.5z M11.5,20.1h-0.3v-0.3h0.3
			c0.1,0,0.3,0,0.3,0.2C11.8,20,11.7,20.1,11.5,20.1z"/>
		<path class="st2" d="M20.8,19.8c-0.1,0-0.2,0-0.4,0.1c-0.1,0.1-0.3,0.1-0.4,0.1c-0.3,0-0.5-0.1-0.5-0.2c-0.1-0.2-0.2-0.4-0.2-0.6
			c0-0.1,0-0.2,0.1-0.4c0.1-0.4,0.3-0.5,0.7-0.5c0,0,0.1,0,0.3,0.1c0.2,0.1,0.4,0.1,0.5,0.1c0.3,0,0.5-0.1,0.6-0.4
			c0-0.1,0.1-0.2,0.1-0.3c0-0.2-0.1-0.6-0.7-0.8c-0.2-0.1-0.5-0.1-0.9-0.1c-0.7,0-1.3,0.2-1.7,0.7c-0.4,0.4-0.6,1-0.6,1.7
			c0,0.7,0.2,1.2,0.6,1.7c0.4,0.4,1,0.7,1.7,0.7c0.4,0,0.7-0.1,1.1-0.2c0.4-0.2,0.5-0.5,0.5-0.7c0-0.2-0.1-0.4-0.2-0.5
			C21.2,19.8,21,19.8,20.8,19.8z M20.9,20.9c-0.3,0.1-0.6,0.2-1,0.2c-0.6,0-1.1-0.2-1.5-0.6c-0.4-0.4-0.5-0.9-0.5-1.4
			c0-0.6,0.2-1.1,0.6-1.4s0.9-0.6,1.5-0.6c0.3,0,0.6,0,0.8,0.1c0.3,0.1,0.5,0.3,0.5,0.5c0,0.1,0,0.1,0,0.2c-0.1,0.2-0.2,0.3-0.4,0.3
			c-0.1,0-0.2,0-0.4-0.1c-0.2-0.1-0.3-0.1-0.4-0.1c-0.5,0-0.8,0.2-1,0.7C19,18.8,19,18.9,19,19.1c0,0.3,0.1,0.6,0.3,0.8
			c0.2,0.2,0.4,0.3,0.8,0.3c0.2,0,0.4,0,0.6-0.1c0.1,0,0.2-0.1,0.3-0.1c0.1,0,0.2,0,0.3,0.1c0.1,0.1,0.1,0.2,0.1,0.3
			C21.3,20.7,21.2,20.8,20.9,20.9z"/>
	</g>
</g>
</svg>
