<?xml version="1.0" encoding="utf-8"?>
<!-- Generator: Adobe Illustrator 19.2.1, SVG Export Plug-In . SVG Version: 6.00 Build 0)  -->
<svg version="1.1" id="图层_1" xmlns="http://www.w3.org/2000/svg" xmlns:xlink="http://www.w3.org/1999/xlink" x="0px" y="0px"
	 viewBox="0 0 39.3 39.3" style="enable-background:new 0 0 39.3 39.3;" xml:space="preserve">
<style type="text/css">
	.st0{fill:none;}
	.st1{clip-path:url(#SVGID_3_);}
	.st2{fill:#F5F6F6;}
</style>
<rect x="-939.1" y="-446.9" class="st0" width="1920" height="1080"/>
<g>
	<g>
		<g>
			<g>
				<defs>
					<path id="SVGID_1_" d="M19.6,0"/>
				</defs>
				<defs>
					<path id="SVGID_2_" d="M19.6,39.3"/>
				</defs>
				<use xlink:href="#SVGID_1_"  style="overflow:visible;fill:#FF9C65;"/>
				<use xlink:href="#SVGID_2_"  style="overflow:visible;fill:#FF9C65;"/>
				<clipPath id="SVGID_3_">
					<use xlink:href="#SVGID_1_"  style="overflow:visible;"/>
				</clipPath>
				<clipPath id="SVGID_4_" class="st1">
					<use xlink:href="#SVGID_2_"  style="overflow:visible;"/>
				</clipPath>
			</g>
		</g>
	</g>
</g>
<g>
	<defs>
		<path id="SVGID_5_" d="M19.6,39.3C8.8,39.3,0,30.5,0,19.6C0,8.8,8.8,0,19.6,0c10.8,0,19.6,8.8,19.6,19.6
			C39.3,30.5,30.5,39.3,19.6,39.3z"/>
	</defs>
	<use xlink:href="#SVGID_5_"  style="overflow:visible;fill:#FF4F6E;"/>
	<clipPath id="SVGID_6_">
		<use xlink:href="#SVGID_5_"  style="overflow:visible;"/>
	</clipPath>
</g>
<g>
	<path class="st2" d="M13.9,22.3c-0.1,0-0.5,0-0.7,0c-1.7,0-3.3,1.7-3.3,3.7c0,2,1.5,3.5,3.2,3.5c1.5,0,3.2-1,3.6-2.5l0-0.3V13.8
		l7.6-2v8.4c-0.2,0-0.4,0-0.5,0c-1.7,0-3.5,1.7-3.5,3.7c0,2,1.7,3.5,3.5,3.5c1.5,0,3-1,3.4-2.6l0-0.6V11.3V7.8l-13.3,2.8V22.3z
		 M14.7,22.3v-11l11.7-2.5v2.6v12.9l0,0.6c-0.3,1-1.4,1.9-2.6,1.9c-1.2,0-2.6-1.2-2.6-2.7c0-1.5,1.3-2.9,2.7-2.9c0.2,0,0.4,0,0.6,0
		l0.8,0v-0.8v-8.4v-1l-1,0.3l-7.6,2l-0.6,0.2v0.6v12.8l0,0.2c-0.3,1.1-1.7,1.9-2.8,1.9c-1.3,0-2.4-1.3-2.4-2.7
		c0-1.5,1.2-2.9,2.5-2.9c0.1,0,0.2,0,0.4,0c0.1,0,0.3,0,0.3,0h0.8V22.3z"/>
</g>
</svg>
