<?xml version="1.0" encoding="utf-8"?>
<svg version="1.1" id="weichat" xmlns="http://www.w3.org/2000/svg" xmlns:xlink="http://www.w3.org/1999/xlink" x="0px" y="0px" viewBox="0 0 74.3 74.3" style="enable-background:new 0 0 74.3 74.3;" xml:space="preserve">
<style type="text/css">
.st0 { fill: none; }
.st1 { fill: #3892BC; }
.st2 { fill: #FFFFFF; }
</style>
<rect x="-920.1" y="-431.3" class="st0" width="1920" height="1080" />
<circle class="st1" cx="37.1" cy="37.1" r="37.1" />
<path class="st2" d="M58.4,39.1c0-3.2-1.8-6-4.5-7.9c-1.6-7-9.5-12.4-19-12.4c-10.6,0-19.3,6.7-19.3,15c0,0.3,0,0.7,0,1c0,0.3,0,0.6,0,0.9c0,5.6,3.9,10.4,9.6,13v5.1c0,0.6,0.4,1.2,1,1.4c0.2,0.1,0.4,0.1,0.6,0.1c0.4,0,0.8-0.2,1.1-0.5l4.3-4.3c0.9,0.1,1.8,0.1,2.7,0.1c1.2,0,2.4-0.1,3.6-0.3c1.9,0.8,4,1.2,6.3,1.2c0.6,0,1.3,0,1.9-0.1l3.1,3.1c0.2,0.2,0.5,0.3,0.8,0.3c0.1,0,0.3,0,0.4-0.1c0.4-0.2,0.6-0.7,0.6-1.1v-3.6c4.1-1.8,6.9-5.2,6.9-9.1c0-0.3,0-0.6-0.1-1C58.3,39.8,58.4,39.5,58.4,39.1z M57.2,36.8c-2.1-3.8-6.9-6.4-12.5-6.4c-5.6,0-10.4,2.6-12.5,6.4c1.4-4.3,6.5-7.6,12.5-7.6c3.7,0,7,1.2,9.3,3.1c0,0,0,0,0,0c0,0,0,0,0,0C55.5,33.5,56.7,35.1,57.2,36.8z M34.8,19.6c8.5,0,15.7,4.5,17.8,10.5c-2.9-5.5-9.8-9.3-17.8-9.3c-8.1,0-15,3.9-17.8,9.4C19.2,24.1,26.3,19.6,34.8,19.6z M34.8,50c-0.8,0-1.7,0-2.6-0.1l-0.4,0l-0.3,0.3l-4.3,4.3c-0.1,0.1-0.3,0.2-0.5,0.2c-0.1,0-0.2,0-0.3-0.1c-0.3-0.1-0.5-0.4-0.5-0.7v-5.6l-0.5-0.2c-5.7-2.6-9.2-7.3-9.2-12.3c0-7.9,8.3-14.3,18.5-14.3c7.5,0,14,3.5,16.9,8.5c-2.1-1-4.5-1.5-7.1-1.5c-7.6,0-13.7,4.8-13.7,10.7c0,0.3,0,0.6,0.1,0.9c0,0.3-0.1,0.6-0.1,1c0,3.7,2.4,7,6.1,8.9C36.4,50,35.6,50,34.8,50z M51.1,49.5l-0.5,0.2v0.5v3.6c0,0.2-0.1,0.4-0.1,0.4c0,0-0.1,0-0.1,0c-0.1,0-0.2,0-0.2-0.1l-3.1-3.1l-0.3-0.3l-0.4,0c-0.6,0.1-1.2,0.1-1.8,0.1c-7.1,0-12.9-4.4-12.9-9.9c0-5.5,5.8-9.9,12.9-9.9c7.1,0,12.9,4.4,12.9,9.9C57.6,44.5,55.2,47.7,51.1,49.5z" />
</svg>
