<?xml version="1.0" encoding="utf-8"?>
<svg version="1.1" id="logo" xmlns="http://www.w3.org/2000/svg" xmlns:xlink="http://www.w3.org/1999/xlink" x="0px" y="0px" viewBox="0 0 272.6 76.7" style="enable-background:new 0 0 272.6 76.7;" xml:space="preserve">
<g id="XMLID_387_">
    <path id="XMLID_159_" d="M51.7,32.8c0-14.3-11.6-25.9-25.9-25.9S0,18.5,0,32.8c0,14.3,11.6,25.9,25.9,25.9c5.7,0,10.9-1.8,15.1-4.9v17.6c0,3,2.4,5.4,5.4,5.4c3,0,5.4-2.4,5.4-5.4V38.1c0-0.6-0.1-1.1-0.3-1.7C51.6,35.3,51.7,34,51.7,32.8 M25.9,48.3c-8.6,0-15.5-6.9-15.5-15.5c0-8.6,6.9-15.5,15.5-15.5c8.6,0,15.5,6.9,15.5,15.5C41.4,41.3,34.4,48.3,25.9,48.3" />
    <path id="XMLID_156_" d="M103.2,19.7c-11.4,0-20.6,9.2-20.6,20.6c0,11.4,9.2,20.6,20.6,20.6s20.6-9.2,20.6-20.6C123.8,28.9,114.6,19.7,103.2,19.7 M103.2,50.1c-5.5,0-9.9-4.4-9.9-9.9c0-5.5,4.4-9.9,9.9-9.9c5.5,0,9.9,4.4,9.9,9.9C113.1,45.7,108.7,50.1,103.2,50.1" />
    <path id="XMLID_153_" d="M190.6,19.7c-11.4,0-20.6,9.2-20.6,20.6c0,11.4,9.2,20.6,20.6,20.6c11.4,0,20.6-9.2,20.6-20.6C211.2,28.9,202,19.7,190.6,19.7 M190.6,50.1c-5.5,0-9.9-4.4-9.9-9.9c0-5.5,4.4-9.9,9.9-9.9c5.5,0,9.9,4.4,9.9,9.9C200.5,45.7,196.1,50.1,190.6,50.1" />
    <path id="XMLID_150_" d="M146.2,19.7c-3.6,0-6.9,0.9-9.8,2.5V11.9c0-3-2.4-5.4-5.4-5.4c-3,0-5.4,2.4-5.4,5.4v24c0,0.5,0.1,1,0.2,1.5c-0.1,1-0.2,1.9-0.2,2.9c0,11.4,9.2,20.6,20.6,20.6c11.4,0,20.6-9.2,20.6-20.6C166.7,28.9,157.5,19.7,146.2,19.7 M146.2,50.1c-5.5,0-9.9-4.4-9.9-9.9c0-5.5,4.4-9.9,9.9-9.9c5.5,0,9.9,4.4,9.9,9.9C156.1,45.7,151.6,50.1,146.2,50.1" />
    <path id="XMLID_149_" d="M77.3,19.7h-2.5c-9.1,0-17.6,9-17.7,17.8h0v18c0,3,2.4,5.4,5.4,5.4c3,0,5.4-2.4,5.4-5.4V37.6c0.1-7.2,7-7.3,7-7.3v0h2.5c3,0,5.4-2.4,5.4-5.4S80.3,19.7,77.3,19.7" />
    <path id="XMLID_148_" d="M245.9,44.5c-1.6,0-3.1,0.7-4.1,1.9c-1.8,1.9-4.4,3.2-7.3,3.2c-5.5,0-10-4.5-10-10v-5h-0.1c0-0.2,0.1-0.5,0.1-0.8v-4.1h15.2c2.8,0,5-2.2,5-5c0-2.8-2.2-5-5-5h-15.2v-8.1c0-2.8-2.2-5-5-5c-2.8,0-5,2.2-5,5v22.2c0,0.3,0,0.5,0.1,0.8h-0.1v6.4c0,11,8.9,19.9,19.9,19.9c6,0,11.4-2.7,15-6.9c1.1-1,1.8-2.4,1.8-4C251.4,46.9,249,44.5,245.9,44.5" />
    <path id="XMLID_145_" d="M264.2,11.1c-0.2-0.2-0.4-0.3-0.8-0.5c0.9-0.1,1.6-0.4,2.1-0.9c0.5-0.5,0.7-1.1,0.7-1.8c0-0.5-0.1-1-0.4-1.5c-0.3-0.4-0.6-0.8-1.1-0.9c-0.5-0.2-1.1-0.3-2-0.3h-4.4v9.9h1.3v-4.4h1.5c0.3,0,0.6,0,0.7,0c0.2,0,0.4,0.1,0.6,0.3c0.2,0.1,0.4,0.3,0.7,0.7c0.2,0.3,0.6,0.8,0.9,1.4l1.3,2.1h1.6l-1.7-2.7C264.9,11.8,264.6,11.4,264.2,11.1 M262.4,9.5h-2.8V6.3h3.1c0.7,0,1.3,0.2,1.6,0.5c0.3,0.3,0.5,0.7,0.5,1.2c0,0.3-0.1,0.6-0.3,0.9c-0.2,0.3-0.4,0.5-0.8,0.6C263.5,9.5,263,9.5,262.4,9.5" />
    <path id="XMLID_142_" d="M262.6,0c-5.5,0-9.9,4.4-9.9,9.9c0,5.5,4.4,9.9,9.9,9.9c5.5,0,9.9-4.4,9.9-9.9C272.6,4.4,268.1,0,262.6,0 M262.6,18.6c-4.8,0-8.7-3.9-8.7-8.7c0-4.8,3.9-8.7,8.7-8.7c4.8,0,8.7,3.9,8.7,8.7C271.3,14.7,267.4,18.6,262.6,18.6" />
</g>
</svg>
